<svg xmlns="http://www.w3.org/2000/svg" xml:space="preserve" width="1500" height="1500" data-id="lg_PPBaGrZpIlM8KSaonv" data-version="1" viewBox="0 0 1500 1500"><path fill="#006f6d" stroke="transparent" d="M0 0h1500v1500H0z"/><g data-padding="20"><g transform="translate(-569.073 -575.364)scale(1.71898)"><path fill="#444" stroke="#fff" stroke-width="1.96" d="M486.984 941.5H647.4m239.914-.17h160.416"/><rect width="465.103" height="85.88" x="134.43" y="328.1" fill="none" rx="0" ry="0" transform="translate(401.57 507.97)"/><path fill="#fff" d="M539.492 902.88v-53.2h11.93l5.32 38.08h.15l5.32-38.08h11.93v53.2h-7.9V862.6h-.15l-6.08 40.28h-6.99l-6.08-40.28h-.16v40.28Zm38.68 0 8.67-53.2h11.32l8.66 53.2h-8.36l-1.52-10.56v.15h-9.5l-1.52 10.41Zm10.26-17.63h7.53l-3.73-26.29h-.15Zm22.41 17.63v-53.2h8.36v21.66h8.97v-21.66h8.36v53.2h-8.36v-23.94h-8.97v23.94Zm31.93 0v-53.2h11.93l5.32 38.08h.16l5.32-38.08h11.93v53.2h-7.91V862.6h-.15l-6.08 40.28h-6.99l-6.08-40.28h-.15v40.28Zm52.97.76q-6.15 0-9.42-3.49-3.27-3.5-3.27-9.88V862.3q0-6.38 3.27-9.88t9.42-3.5q6.16 0 9.43 3.5t3.27 9.88v27.97q0 6.38-3.27 9.88-3.27 3.49-9.43 3.49m0-7.6q4.34 0 4.34-5.24v-29.03q0-5.25-4.34-5.25-4.33 0-4.33 5.25v29.03q0 5.24 4.33 5.24m30.48 7.6q-6.08 0-9.27-3.45-3.19-3.46-3.19-9.92v-40.59h8.36v41.2q0 2.73 1.1 3.95 1.1 1.21 3.15 1.21t3.16-1.21q1.1-1.22 1.1-3.95v-41.2h8.05v40.59q0 6.46-3.19 9.92-3.19 3.45-9.27 3.45m18.38-.76v-53.2h12.77q6.23 0 9.35 3.35 3.11 3.34 3.11 9.8v26.91q0 6.46-3.11 9.8-3.12 3.34-9.35 3.34Zm8.36-7.6h4.26q2.05 0 3.15-1.21 1.1-1.22 1.1-3.95v-27.67q0-2.73-1.1-3.95t-3.15-1.22h-4.26Zm34.67 7.6v-53.2h22.8v7.6h-14.44v14.06h11.47v7.6h-11.47v16.34h14.44v7.6Zm27.58 0v-53.2h8.36v45.6h13.75v7.6Zm26.15 0v-53.2h11.93l5.32 38.08h.15l5.32-38.08h11.94v53.2h-7.91V862.6h-.15l-6.08 40.28h-6.99l-6.08-40.28h-.15v40.28Zm38.68 0 8.67-53.2h11.32l8.67 53.2h-8.36l-1.52-10.56v.15h-9.5l-1.52 10.41Zm10.26-17.63h7.53l-3.73-26.29h-.15Zm22.41 17.63v-53.2h8.36v21.66h8.97v-21.66h8.36v53.2h-8.36v-23.94h-8.97v23.94Zm31.93 0v-53.2h12.77q6.23 0 9.35 3.35 3.12 3.34 3.12 9.8v26.91q0 6.46-3.12 9.8t-9.35 3.34Zm8.36-7.6h4.26q2.05 0 3.15-1.21 1.11-1.22 1.11-3.95v-27.67q0-2.73-1.11-3.95-1.1-1.22-3.15-1.22h-4.26Zm30.17 7.6v-22.64l-10.11-30.56h8.89l5.7 19.54h.15l5.7-19.54h8.13l-10.1 30.56v22.64Z"/><rect width="220.42" height="22.6" x="256.772" y="359.74" fill="none" rx="0" ry="0" transform="translate(401.08 570.06)"/><path fill="#fff" d="M669.772 943.95q0 .71-.27 1.33-.27.63-.74 1.1t-1.1.73q-.63.27-1.34.27h-4.43v-14h4.43q.71 0 1.34.27t1.1.73q.47.47.74 1.1t.27 1.35Zm-1.26 0v-7.12q0-.47-.18-.88-.17-.4-.48-.71t-.71-.48q-.41-.18-.88-.18h-3.11v11.6h3.11q.47 0 .88-.17.4-.18.71-.48.31-.31.48-.71.18-.41.18-.87m5.55-8.97h-1.39v-1.6h1.39Zm-.09 12.4h-1.2v-10h1.2Zm9.66-2.54q0 .61-.24 1.11-.24.51-.66.87t-.98.56q-.55.2-1.15.2h-.8q-.61 0-1.16-.23t-.97-.63q-.41-.4-.66-.94t-.25-1.14v-.4l1.2-.2v.67q0 .36.15.68.15.31.41.55.25.23.58.37.34.14.7.14h.8q.36 0 .69-.11t.59-.31.41-.48q.15-.29.15-.65 0-.53-.23-.88-.24-.34-.62-.57-.39-.23-.88-.38t-1.01-.3-1.01-.35q-.49-.19-.88-.51t-.62-.8q-.24-.48-.24-1.19 0-.6.24-1.11.23-.5.63-.86t.94-.56q.53-.2 1.13-.2h.71q.6 0 1.14.23t.94.63.63.93q.23.54.23 1.15v.04l-1.2.19v-.3q0-.36-.14-.68t-.37-.55q-.24-.24-.55-.37-.32-.14-.68-.14h-.71q-.36 0-.67.11-.32.11-.56.31-.23.2-.37.48-.13.28-.13.64 0 .52.23.85t.62.55.88.38l1.01.31q.51.16 1 .36.49.21.88.53t.62.81q.23.48.23 1.19m9-.2q0 .6-.23 1.14t-.63.94-.94.63-1.14.23h-.8q-.61 0-1.14-.23-.54-.23-.94-.63t-.63-.94-.23-1.14v-4.51q0-.61.23-1.15.23-.53.63-.93t.94-.63q.53-.23 1.14-.23h.8q.6 0 1.14.23t.94.63.63.93q.23.54.23 1.15v.4l-1.2.19v-.66q0-.36-.14-.68t-.37-.55q-.23-.24-.55-.37-.32-.14-.68-.14h-.8q-.36 0-.68.14-.32.13-.55.37-.24.23-.37.55-.14.32-.14.68v4.65q0 .36.14.68.13.31.37.55.23.23.55.37t.68.14h.8q.36 0 .68-.14t.55-.37q.23-.24.37-.55.14-.32.14-.68v-.67l1.2.2Zm9.08 0q0 .6-.23 1.14t-.63.94-.94.63q-.53.23-1.14.23h-.8q-.6 0-1.14-.23t-.94-.63-.63-.94-.23-1.14v-4.51q0-.61.23-1.15.23-.53.63-.93t.94-.63 1.14-.23h.8q.61 0 1.14.23.54.23.94.63t.63.93q.23.54.23 1.15Zm-1.2.07v-4.65q0-.36-.14-.68-.13-.32-.37-.55-.23-.24-.55-.37-.32-.14-.68-.14h-.8q-.36 0-.68.14-.32.13-.55.37-.23.23-.37.55t-.14.68v4.65q0 .36.14.68.14.31.37.55.23.23.55.37t.68.14h.8q.36 0 .68-.14t.55-.37q.24-.24.37-.55.14-.32.14-.68m10.28-7.33-3.54 10h-.6l-3.54-10h1.2l2.61 7.58.04.52.03-.52 2.6-7.58Zm8.08 7.26q0 .6-.23 1.14t-.63.94-.94.63q-.53.23-1.14.23h-.8q-.61 0-1.14-.23-.54-.23-.94-.63t-.63-.94-.23-1.14v-4.51q0-.61.23-1.15.23-.53.63-.93t.94-.63q.53-.23 1.14-.23h.8q.61 0 1.14.23.54.23.94.63t.63.93q.23.54.23 1.15v2.35h-5.48v2.23q0 .36.14.68.13.31.37.55.23.23.55.37t.68.14h.8q.36 0 .68-.14t.55-.37q.23-.24.37-.55.14-.32.14-.68v-.67l1.2.2Zm-1.2-3.1v-1.48q0-.36-.14-.68t-.37-.55q-.23-.24-.55-.37-.32-.14-.68-.14h-.8q-.36 0-.68.14-.32.13-.55.37-.24.23-.37.55-.14.32-.14.68v1.48Zm7.74-3.01h-1.2q-.36 0-.68.13-.32.14-.55.37-.23.24-.37.55-.14.32-.14.68v7.12h-1.2v-10h.4l.66 1.02q.41-.56 1.03-.89.62-.32 1.35-.32h.7Zm10.94 8.85h-1.09q-.55 0-1.03-.2-.49-.21-.84-.57-.36-.36-.57-.84t-.21-1.02v-6.22h-1.8v-1.15h1.8v-2.4l1.2-.19v2.59h2.54v1.15h-2.54v6.27q0 .31.11.57.12.25.31.45.2.2.46.31t.57.11h1.09Zm8.89 0h-1.2v-7.32q0-.36-.14-.68t-.37-.55q-.24-.24-.55-.37-.32-.14-.68-.14h-.8q-.37 0-.68.14-.32.13-.55.37-.24.23-.38.55-.13.32-.13.68v7.32h-1.2v-14h1.2v4.84q.41-.49.98-.76.58-.27 1.25-.27h.31q.6 0 1.14.23t.94.63.63.93q.23.54.23 1.15Zm9.08-2.74q0 .6-.23 1.14t-.63.94-.94.63-1.14.23h-.8q-.61 0-1.14-.23-.54-.23-.94-.63t-.63-.94-.23-1.14v-4.51q0-.61.23-1.15.23-.53.63-.93t.94-.63q.53-.23 1.14-.23h.8q.6 0 1.14.23t.94.63.63.93q.23.54.23 1.15v2.35h-5.48v2.23q0 .36.14.68.13.31.37.55.23.23.55.37t.68.14h.8q.36 0 .68-.14t.55-.37q.23-.24.37-.55.14-.32.14-.68v-.67l1.2.2Zm-1.2-3.1v-1.48q0-.36-.14-.68t-.37-.55q-.23-.24-.55-.37-.32-.14-.68-.14h-.8q-.36 0-.68.14-.32.13-.55.37-.24.23-.37.55-.14.32-.14.68v1.48Zm14.88 5.84h-1.2v-7.32q0-.36-.14-.68-.13-.32-.37-.55-.23-.24-.55-.37-.32-.14-.68-.14h-.8q-.36 0-.68.14-.32.13-.55.37-.24.23-.37.55-.14.32-.14.68v7.32h-1.2v-14h1.2v4.84q.41-.49.99-.76.57-.27 1.25-.27h.3q.61 0 1.14.23.54.23.94.63t.63.93q.23.54.23 1.15Zm4.09-12.4h-1.39v-1.6h1.39Zm-.1 12.4h-1.2v-10h1.2Zm9.5 0h-.4l-.67-1.01q-.41.55-1.02.88-.62.33-1.35.33h-.3q-.61 0-1.15-.23-.53-.23-.93-.63t-.63-.94-.23-1.14v-4.51q0-.61.23-1.15.23-.53.63-.93t.93-.63q.54-.23 1.15-.23h.3q.67 0 1.25.27t.99.76v-4.84h1.2Zm-1.2-2.67v-4.65q0-.36-.14-.68t-.37-.55q-.24-.24-.55-.37-.32-.14-.68-.14h-.8q-.37 0-.68.14-.32.13-.55.37-.24.23-.38.55-.13.32-.13.68v4.65q0 .36.13.68.14.31.38.55.23.23.55.37.31.14.68.14h.8q.36 0 .68-.14.31-.14.55-.37.23-.24.37-.55.14-.32.14-.68m10.28 2.67h-.4l-.67-1.01q-.41.55-1.02.88-.62.33-1.35.33h-.3q-.61 0-1.14-.23-.54-.23-.94-.63t-.63-.94-.23-1.14v-4.51q0-.61.23-1.15.23-.53.63-.93t.94-.63q.53-.23 1.14-.23h.3q.67 0 1.25.27t.99.76v-4.84h1.2Zm-1.2-2.67v-4.65q0-.36-.14-.68t-.37-.55q-.23-.24-.55-.37-.32-.14-.68-.14h-.8q-.36 0-.68.14-.32.13-.55.37-.24.23-.37.55-.14.32-.14.68v4.65q0 .36.14.68.13.31.37.55.23.23.55.37t.68.14h.8q.36 0 .68-.14t.55-.37q.23-.24.37-.55.14-.32.14-.68m10.28-.07q0 .6-.23 1.14t-.63.94-.94.63q-.53.23-1.14.23h-.8q-.61 0-1.14-.23-.54-.23-.94-.63t-.63-.94-.23-1.14v-4.51q0-.61.23-1.15.23-.53.63-.93t.94-.63q.53-.23 1.14-.23h.8q.61 0 1.14.23.54.23.94.63t.63.93q.23.54.23 1.15v2.35h-5.48v2.23q0 .36.14.68.14.31.37.55.23.23.55.37t.68.14h.8q.36 0 .68-.14t.55-.37q.24-.24.37-.55.14-.32.14-.68v-.67l1.2.2Zm-1.2-3.1v-1.48q0-.36-.14-.68-.13-.32-.37-.55-.23-.24-.55-.37-.32-.14-.68-.14h-.8q-.36 0-.68.14-.32.13-.55.37-.23.23-.37.55t-.14.68v1.48Zm10.28 5.84h-1.2v-7.32q0-.36-.14-.68-.13-.32-.37-.55-.23-.24-.55-.37-.32-.14-.68-.14h-.8q-.36 0-.68.14-.31.13-.55.37-.23.23-.37.55t-.14.68v7.32h-1.2v-10h.4l.66 1.02q.41-.56 1.03-.89.62-.32 1.35-.32h.3q.61 0 1.15.23.53.23.93.63t.63.93q.23.54.23 1.15Zm8.7-12.4h-1.39v-1.6h1.39Zm-.09 12.4h-1.21v-10h1.21Zm9.48 0h-1.2v-7.32q0-.36-.14-.68t-.37-.55q-.23-.24-.55-.37-.32-.14-.68-.14h-.8q-.36 0-.68.14-.32.13-.55.37-.24.23-.37.55-.14.32-.14.68v7.32h-1.2v-10h.4l.65 1.02q.41-.56 1.03-.89.62-.32 1.36-.32h.3q.6 0 1.14.23t.94.63.63.93q.23.54.23 1.15Zm9.28-2.54q0 .61-.25 1.11-.24.51-.66.87t-.97.56q-.56.2-1.16.2h-.8q-.61 0-1.16-.23t-.97-.63q-.41-.4-.66-.94t-.25-1.14v-.4l1.2-.2v.67q0 .36.15.68.15.31.41.55.25.23.58.37.34.14.7.14h.8q.36 0 .69-.11t.59-.31.41-.48q.15-.29.15-.65 0-.53-.23-.88-.23-.34-.62-.57t-.88-.38-1.01-.3-1.01-.35q-.49-.19-.88-.51t-.62-.8-.23-1.19q0-.6.23-1.11.23-.5.64-.86.4-.36.93-.56t1.14-.2h.7q.6 0 1.14.23t.94.63.63.93q.23.54.23 1.15v.04l-1.2.19v-.3q0-.36-.14-.68t-.37-.55q-.24-.24-.55-.37-.32-.14-.68-.14h-.7q-.37 0-.68.11-.32.11-.55.31-.24.2-.38.48-.13.28-.13.64 0 .52.23.85.24.33.62.55.39.22.88.38l1.01.31q.51.16 1 .36.5.21.88.53.39.32.62.81.24.48.24 1.19m4-9.86h-1.4v-1.6h1.4Zm-.1 12.4h-1.2v-10h1.2Zm9.58 1.26q0 .61-.23 1.12-.23.5-.63.86-.4.37-.93.57-.54.2-1.15.2h-.5q-.6 0-1.14-.2t-.94-.57q-.4-.36-.63-.86-.22-.51-.22-1.12v-.04q0-.58.21-1.07t.59-.85q-.47-.28-.75-.77-.28-.48-.28-1.07 0-.52.23-.98.22-.45.61-.74-.47-.41-.74-.98-.28-.58-.28-1.26v-.75q0-.61.23-1.15.23-.53.63-.93t.94-.63 1.14-.23h.5q.73 0 1.35.32.62.33 1.04.89l.65-1.02h.4v3.5q0 .6-.23 1.14t-.63.94-.94.63q-.53.23-1.14.23h-1.74q-.2 0-.39.08-.18.08-.33.22-.14.14-.22.33-.07.19-.07.39 0 .21.07.39.08.19.22.33.15.14.33.22.19.08.39.08h1.64q.61 0 1.15.2.53.2.93.56t.63.87.23 1.11Zm-1.09-7.69v-.89q0-.36-.14-.68t-.37-.55q-.24-.24-.56-.37-.32-.14-.68-.14h-1q-.36 0-.67.14-.32.13-.56.37-.23.23-.37.55-.13.32-.13.68v.89q0 .36.13.68.14.31.37.55.24.23.56.37.31.14.67.14h1q.36 0 .68-.14t.56-.37q.23-.24.37-.55.14-.32.14-.68m-.05 7.75v-.16q0-.36-.14-.64-.13-.29-.37-.49-.23-.19-.55-.3t-.68-.11h-.61q-.37 0-.68.11-.32.11-.55.3-.24.2-.38.49-.13.28-.13.64v.16q0 .36.13.65.14.28.38.48.23.2.55.31.31.1.68.1h.61q.36 0 .68-.1.32-.11.55-.31.24-.2.37-.48.14-.29.14-.65m10.13-1.32h-1.2v-7.32q0-.36-.14-.68t-.37-.55q-.24-.24-.55-.37-.32-.14-.68-.14h-.8q-.37 0-.68.14-.32.13-.55.37-.24.23-.38.55-.13.32-.13.68v7.32h-1.2v-14h1.2v4.84q.41-.49.98-.76.58-.27 1.25-.27h.31q.6 0 1.14.23t.94.63.63.93q.23.54.23 1.15Zm7.14 0h-1.1q-.55 0-1.03-.2-.48-.21-.84-.57t-.57-.84-.21-1.02v-6.22h-1.79v-1.15h1.79v-2.4l1.21-.19v2.59h2.54v1.15h-2.54v6.27q0 .31.11.57.11.25.31.45.19.2.45.31.27.11.57.11h1.1Zm9.08-2.54q0 .61-.25 1.11-.24.51-.66.87t-.97.56-1.16.2h-.8q-.61 0-1.16-.23t-.96-.63q-.42-.4-.67-.94t-.25-1.14v-.4l1.2-.2v.67q0 .36.15.68.16.31.41.55.25.23.59.37.33.14.69.14h.8q.36 0 .69-.11.34-.11.59-.31.26-.2.41-.48.16-.29.16-.65 0-.53-.24-.88-.23-.34-.62-.57-.38-.23-.88-.38-.49-.15-1.01-.3t-1.01-.35q-.49-.19-.88-.51-.38-.32-.62-.8-.23-.48-.23-1.19 0-.6.23-1.11.24-.5.64-.86t.93-.56 1.14-.2h.7q.61 0 1.14.23.54.23.94.63t.63.93q.23.54.23 1.15v.04l-1.2.19v-.3q0-.36-.14-.68t-.37-.55q-.23-.24-.55-.37-.32-.14-.68-.14h-.7q-.36 0-.68.11t-.55.31q-.24.2-.37.48-.14.28-.14.64 0 .52.23.85.24.33.62.55.39.22.88.38.5.15 1.01.31t1 .36q.5.21.88.53.39.32.62.81.24.48.24 1.19m-106.22-355.207a113.587 113.587 0 1 0 0 227.174 113.587 113.587 0 1 0 0-227.174"/><path fill="#002a29" d="M820.686 666.095a3.66 3.66 0 0 0-3.564 4.326l-14.32 8.31a3.66 3.66 0 0 0-5.946-1.263l-14.078-8.246a3.645 3.645 0 0 0-7.193-.049l-10.27 3.564a3.629 3.629 0 0 0-6.578 2.171 3.661 3.661 0 1 0 7.258-.583l9.736-3.402a3.645 3.645 0 0 0 6.836.162l13.382 7.84q-.195.552-.211 1.135a3.661 3.661 0 0 0 7.258.518l14.823-8.586a3.629 3.629 0 0 0 6.544-2.235 3.66 3.66 0 0 0-3.66-3.662m-58.288 10.757a1.944 1.944 0 1 1 0-3.888 1.944 1.944 0 0 1 0 3.888m16.783-5.168a1.944 1.944 0 1 1-.355-3.87 1.944 1.944 0 0 1 .355 3.87m20.217 10.32a1.944 1.944 0 0 1 0-3.872 1.944 1.944 0 0 1 0 3.888m21.303-10.32a1.944 1.944 0 1 1-.354-3.87 1.944 1.944 0 0 1 .354 3.871"/><path fill="#002a29" d="M825.06 642.72c-17.668-17.46-45.802-18.359-64.547-2.063-18.747 16.293-21.773 44.28-6.943 64.205l-11.535 11.55-3.953-3.952-44.906 44.906 17.237 17.237 44.906-44.906-3.953-3.953 11.55-11.535c19.91 15.062 48.087 12.124 64.464-6.72 16.375-18.843 15.354-47.154-2.336-64.77m-6.107 56.91v-23.684c-4.57 1.004-8.392 6.707-15.05 10.368l-.438.21v23.766q-2.64.956-5.378 1.458V687.56c-4.196-.907-6.95-6.366-14.418-10.724l-1.07-.535v34.928a35.6 35.6 0 0 1-5.378-1.815V675.33c-5.491.146-11.404 3.11-15.487 5.654v15.714c-10.578-15.4-7.643-36.327 6.762-48.224s35.51-10.82 48.632 2.48 13.913 34.416 1.825 48.66"/></g><path fill="transparent" stroke="transparent" stroke-width="1.783" d="M250 426.47h1000v647.06H250z"/></g></svg>